<svg xmlns="http://www.w3.org/2000/svg" xmlns:xlink="http://www.w3.org/1999/xlink" width="500" zoomAndPan="magnify" viewBox="0 0 375 374.999991" height="500" preserveAspectRatio="xMidYMid meet" version="1.0"><defs><g/></defs><rect x="-37.5" width="450" fill="#ffffff" y="-37.499999" height="449.999989" fill-opacity="1"/><rect x="-37.5" width="450" fill="#000000" y="-37.499999" height="449.999989" fill-opacity="1"/><g fill="#ff1111" fill-opacity="0.302"><g transform="translate(136.289876, 263.306119)"><g><path d="M 107.265625 -15.15625 L 32.5 -15.15625 C 30.539062 -15.15625 29.96875 -16.128906 30.78125 -18.078125 C 30.945312 -18.398438 31.113281 -18.644531 31.28125 -18.8125 L 108.96875 -136.828125 C 108.644531 -149.046875 102.457031 -155.238281 90.40625 -155.40625 L 13.921875 -155.15625 L 13.921875 -140 L 86 -140 C 87.789062 -140 88.445312 -139.1875 87.96875 -137.5625 C 87.800781 -137.238281 87.632812 -136.992188 87.46875 -136.828125 L 8.546875 -16.609375 C 8.878906 -5.703125 14.910156 -0.164062 26.640625 0 L 107.265625 0 Z M 107.265625 -15.15625 "/></g></g></g><g fill="#ff1111" fill-opacity="0.502"><g transform="translate(132.751396, 259.767641)"><g><path d="M 107.265625 -15.15625 L 32.5 -15.15625 C 30.539062 -15.15625 29.96875 -16.128906 30.78125 -18.078125 C 30.945312 -18.398438 31.113281 -18.644531 31.28125 -18.8125 L 108.96875 -136.828125 C 108.644531 -149.046875 102.457031 -155.238281 90.40625 -155.40625 L 13.921875 -155.15625 L 13.921875 -140 L 86 -140 C 87.789062 -140 88.445312 -139.1875 87.96875 -137.5625 C 87.800781 -137.238281 87.632812 -136.992188 87.46875 -136.828125 L 8.546875 -16.609375 C 8.878906 -5.703125 14.910156 -0.164062 26.640625 0 L 107.265625 0 Z M 107.265625 -15.15625 "/></g></g></g><g fill="#1217d9" fill-opacity="1"><g transform="translate(129.212918, 256.229163)"><g><path d="M 107.265625 -15.15625 L 32.5 -15.15625 C 30.539062 -15.15625 29.96875 -16.128906 30.78125 -18.078125 C 30.945312 -18.398438 31.113281 -18.644531 31.28125 -18.8125 L 108.96875 -136.828125 C 108.644531 -149.046875 102.457031 -155.238281 90.40625 -155.40625 L 13.921875 -155.15625 L 13.921875 -140 L 86 -140 C 87.789062 -140 88.445312 -139.1875 87.96875 -137.5625 C 87.800781 -137.238281 87.632812 -136.992188 87.46875 -136.828125 L 8.546875 -16.609375 C 8.878906 -5.703125 14.910156 -0.164062 26.640625 0 L 107.265625 0 Z M 107.265625 -15.15625 "/></g></g></g></svg>